<svg width="79" height="13" viewBox="0 0 79 13" fill="none" xmlns="http://www.w3.org/2000/svg">
<path d="M0.758522 10V1.27275H6.6392V2.79406H2.60369V4.8736H6.33665V6.39491H2.60369V8.47872H6.65625V10H0.758522Z" fill="#FAFAFA"/>
<path d="M9.33856 10.1236C8.92095 10.1236 8.54879 10.0512 8.22209 9.90627C7.89538 9.75855 7.63686 9.54122 7.44652 9.25428C7.25902 8.96451 7.16527 8.60372 7.16527 8.1719C7.16527 7.80826 7.23203 7.50286 7.36555 7.2557C7.49908 7.00855 7.68089 6.80968 7.91101 6.65911C8.14112 6.50855 8.40249 6.39491 8.6951 6.3182C8.99055 6.2415 9.30021 6.18752 9.62408 6.15627C10.0048 6.1165 10.3116 6.07957 10.5445 6.04548C10.7775 6.00855 10.9465 5.95457 11.0516 5.88354C11.1567 5.81252 11.2093 5.70741 11.2093 5.5682V5.54264C11.2093 5.27275 11.1241 5.06394 10.9536 4.91622C10.786 4.76849 10.5474 4.69462 10.2377 4.69462C9.91101 4.69462 9.65106 4.76707 9.45788 4.91195C9.2647 5.054 9.13686 5.23298 9.07436 5.44889L7.39538 5.31252C7.48061 4.9148 7.64822 4.57105 7.89822 4.28127C8.14822 3.98866 8.47067 3.76423 8.86555 3.60798C9.26328 3.44889 9.72351 3.36934 10.2462 3.36934C10.6099 3.36934 10.9579 3.41195 11.2903 3.49718C11.6255 3.58241 11.9224 3.71451 12.1809 3.89349C12.4423 4.07247 12.6482 4.30258 12.7988 4.58383C12.9494 4.86224 13.0246 5.19605 13.0246 5.58525V10H11.3031V9.09235H11.2519C11.1468 9.2969 11.0062 9.4773 10.83 9.63355C10.6539 9.78695 10.4423 9.90769 10.1951 9.99576C9.94794 10.081 9.66243 10.1236 9.33856 10.1236ZM9.85845 8.87076C10.1255 8.87076 10.3613 8.8182 10.5658 8.71309C10.7704 8.60514 10.9309 8.46025 11.0474 8.27843C11.1638 8.09661 11.2221 7.89065 11.2221 7.66053V6.96593C11.1653 7.00286 11.0871 7.03695 10.9877 7.0682C10.8911 7.09661 10.7817 7.1236 10.6596 7.14917C10.5374 7.1719 10.4153 7.1932 10.2931 7.21309C10.171 7.23014 10.0602 7.24576 9.96072 7.25997C9.74766 7.29122 9.56158 7.34093 9.40248 7.40911C9.24339 7.4773 9.11981 7.56963 9.03175 7.6861C8.94368 7.79974 8.89964 7.94178 8.89964 8.11224C8.89964 8.3594 8.98913 8.54832 9.16811 8.679C9.34993 8.80684 9.58004 8.87076 9.85845 8.87076Z" fill="#FAFAFA"/>
<path d="M19.279 5.32104L17.6171 5.42332C17.5887 5.28127 17.5276 5.15343 17.4339 5.03979C17.3401 4.92332 17.2165 4.83099 17.0631 4.76281C16.9126 4.69178 16.7322 4.65627 16.5219 4.65627C16.2407 4.65627 16.0035 4.71593 15.8103 4.83525C15.6171 4.95173 15.5205 5.10798 15.5205 5.304C15.5205 5.46025 15.583 5.59235 15.708 5.70031C15.833 5.80826 16.0475 5.89491 16.3515 5.96025L17.5362 6.19889C18.1725 6.32957 18.6469 6.5398 18.9594 6.82957C19.2719 7.11934 19.4282 7.50002 19.4282 7.97161C19.4282 8.40059 19.3018 8.77701 19.0489 9.10087C18.7989 9.42474 18.4552 9.67758 18.0177 9.8594C17.583 10.0384 17.0816 10.1279 16.5134 10.1279C15.6469 10.1279 14.9566 9.94747 14.4424 9.58667C13.931 9.22303 13.6313 8.72872 13.5433 8.10372L15.3288 8.00997C15.3827 8.27417 15.5134 8.47588 15.7208 8.61508C15.9282 8.75144 16.1938 8.81962 16.5177 8.81962C16.8359 8.81962 17.0915 8.75855 17.2847 8.63639C17.4808 8.51139 17.5802 8.35088 17.583 8.15485C17.5802 7.99008 17.5106 7.85514 17.3742 7.75002C17.2379 7.64207 17.0276 7.55968 16.7435 7.50286L15.61 7.27701C14.9708 7.14917 14.495 6.92758 14.1825 6.61224C13.8728 6.2969 13.718 5.89491 13.718 5.40627C13.718 4.98582 13.8316 4.6236 14.0589 4.31962C14.289 4.01565 14.6114 3.78127 15.0262 3.6165C15.4438 3.45173 15.9325 3.36934 16.4921 3.36934C17.3188 3.36934 17.9694 3.54406 18.4438 3.89349C18.9211 4.24292 19.1995 4.71877 19.279 5.32104Z" fill="#FAFAFA"/>
<path d="M21.092 12.4546C20.8619 12.4546 20.646 12.4361 20.4443 12.3992C20.2455 12.3651 20.0807 12.321 19.95 12.2671L20.3591 10.912C20.5722 10.9773 20.7639 11.0128 20.9344 11.0185C21.1077 11.0242 21.2568 10.9844 21.3818 10.8992C21.5097 10.8139 21.6134 10.6691 21.6929 10.4645L21.7994 10.1875L19.4514 3.45457H21.3605L22.7156 8.26139H22.7838L24.1517 3.45457H26.0736L23.5295 10.7074C23.4074 11.0597 23.2412 11.3665 23.031 11.6279C22.8236 11.8921 22.5608 12.0952 22.2426 12.2372C21.9244 12.3821 21.5409 12.4546 21.092 12.4546Z" fill="#FAFAFA"/>
<path d="M29.7307 6.96593H31.2989L32.0872 7.98014L32.8628 8.88355L34.3244 10.7159H32.6028L31.5972 9.48014L31.0815 8.74718L29.7307 6.96593ZM34.4565 5.63639C34.4565 6.58809 34.2761 7.39775 33.9153 8.06536C33.5574 8.73298 33.0688 9.24292 32.4494 9.59519C31.833 9.94462 31.1398 10.1193 30.3699 10.1193C29.5943 10.1193 28.8983 9.9432 28.2818 9.59093C27.6653 9.23866 27.1781 8.72872 26.8202 8.0611C26.4622 7.39349 26.2832 6.58525 26.2832 5.63639C26.2832 4.68468 26.4622 3.87502 26.8202 3.20741C27.1781 2.5398 27.6653 2.03127 28.2818 1.68184C28.8983 1.32957 29.5943 1.15343 30.3699 1.15343C31.1398 1.15343 31.833 1.32957 32.4494 1.68184C33.0688 2.03127 33.5574 2.5398 33.9153 3.20741C34.2761 3.87502 34.4565 4.68468 34.4565 5.63639ZM32.5858 5.63639C32.5858 5.01991 32.4935 4.50002 32.3088 4.07673C32.127 3.65343 31.8699 3.33241 31.5375 3.11366C31.2051 2.89491 30.8159 2.78553 30.3699 2.78553C29.9239 2.78553 29.5347 2.89491 29.2023 3.11366C28.8699 3.33241 28.6114 3.65343 28.4267 4.07673C28.2449 4.50002 28.154 5.01991 28.154 5.63639C28.154 6.25286 28.2449 6.77275 28.4267 7.19605C28.6114 7.61934 28.8699 7.94036 29.2023 8.15911C29.5347 8.37786 29.9239 8.48724 30.3699 8.48724C30.8159 8.48724 31.2051 8.37786 31.5375 8.15911C31.8699 7.94036 32.127 7.61934 32.3088 7.19605C32.4935 6.77275 32.5858 6.25286 32.5858 5.63639Z" fill="#FAFAFA"/>
<path d="M39.3867 7.21309V3.45457H41.2021V10H39.4592V8.8111H39.391C39.2433 9.19462 38.9975 9.50286 38.6538 9.73582C38.3129 9.96877 37.8967 10.0852 37.4052 10.0852C36.9677 10.0852 36.5827 9.98582 36.2504 9.78695C35.918 9.58809 35.658 9.30542 35.4705 8.93894C35.2859 8.57247 35.1921 8.13355 35.1893 7.62218V3.45457H37.0046V7.29832C37.0075 7.68468 37.1112 7.99008 37.3157 8.21451C37.5202 8.43894 37.7944 8.55116 38.1381 8.55116C38.3569 8.55116 38.5614 8.50144 38.7518 8.40201C38.9421 8.29974 39.0955 8.14917 39.212 7.95031C39.3313 7.75144 39.3896 7.5057 39.3867 7.21309Z" fill="#FAFAFA"/>
<path d="M45.0115 10.1279C44.3496 10.1279 43.7771 9.98724 43.2942 9.70599C42.8141 9.4219 42.4433 9.02701 42.182 8.52133C41.9206 8.01281 41.7899 7.42332 41.7899 6.75286C41.7899 6.07673 41.9206 5.48582 42.182 4.98014C42.4433 4.47161 42.8141 4.07673 43.2942 3.79548C43.7771 3.51139 44.3496 3.36934 45.0115 3.36934C45.6734 3.36934 46.2445 3.51139 46.7246 3.79548C47.2075 4.07673 47.5797 4.47161 47.8411 4.98014C48.1024 5.48582 48.2331 6.07673 48.2331 6.75286C48.2331 7.42332 48.1024 8.01281 47.8411 8.52133C47.5797 9.02701 47.2075 9.4219 46.7246 9.70599C46.2445 9.98724 45.6734 10.1279 45.0115 10.1279ZM45.02 8.72161C45.3212 8.72161 45.5726 8.63639 45.7743 8.46593C45.976 8.29264 46.128 8.05684 46.2303 7.75855C46.3354 7.46025 46.3879 7.12076 46.3879 6.74008C46.3879 6.3594 46.3354 6.01991 46.2303 5.72161C46.128 5.42332 45.976 5.18752 45.7743 5.01423C45.5726 4.84093 45.3212 4.75428 45.02 4.75428C44.7161 4.75428 44.4604 4.84093 44.253 5.01423C44.0484 5.18752 43.8936 5.42332 43.7885 5.72161C43.6862 6.01991 43.6351 6.3594 43.6351 6.74008C43.6351 7.12076 43.6862 7.46025 43.7885 7.75855C43.8936 8.05684 44.0484 8.29264 44.253 8.46593C44.4604 8.63639 44.7161 8.72161 45.02 8.72161Z" fill="#FAFAFA"/>
<path d="M52.295 3.45457V4.8182H48.3533V3.45457H52.295ZM49.2482 1.88639H51.0635V7.98866C51.0635 8.15627 51.0891 8.28695 51.1402 8.3807C51.1913 8.47161 51.2624 8.53553 51.3533 8.57247C51.447 8.6094 51.555 8.62786 51.6771 8.62786C51.7624 8.62786 51.8476 8.62076 51.9328 8.60656C52.018 8.58951 52.0834 8.57673 52.1288 8.5682L52.4143 9.91906C52.3234 9.94747 52.1956 9.98014 52.0308 10.0171C51.8661 10.0568 51.6658 10.081 51.43 10.0895C50.9925 10.1066 50.6089 10.0483 50.2794 9.9148C49.9527 9.78127 49.6984 9.57389 49.5166 9.29264C49.3348 9.01139 49.2453 8.65627 49.2482 8.2273V1.88639Z" fill="#FAFAFA"/>
<path d="M54.744 10.1236C54.3264 10.1236 53.9543 10.0512 53.6276 9.90627C53.3009 9.75855 53.0423 9.54122 52.852 9.25428C52.6645 8.96451 52.5707 8.60372 52.5707 8.1719C52.5707 7.80826 52.6375 7.50286 52.771 7.2557C52.9045 7.00855 53.0864 6.80968 53.3165 6.65911C53.5466 6.50855 53.808 6.39491 54.1006 6.3182C54.396 6.2415 54.7057 6.18752 55.0295 6.15627C55.4102 6.1165 55.717 6.07957 55.95 6.04548C56.183 6.00855 56.352 5.95457 56.4571 5.88354C56.5622 5.81252 56.6148 5.70741 56.6148 5.5682V5.54264C56.6148 5.27275 56.5295 5.06394 56.3591 4.91622C56.1915 4.76849 55.9528 4.69462 55.6432 4.69462C55.3165 4.69462 55.0565 4.76707 54.8634 4.91195C54.6702 5.054 54.5423 5.23298 54.4798 5.44889L52.8009 5.31252C52.8861 4.9148 53.0537 4.57105 53.3037 4.28127C53.5537 3.98866 53.8761 3.76423 54.271 3.60798C54.6688 3.44889 55.129 3.36934 55.6517 3.36934C56.0153 3.36934 56.3634 3.41195 56.6957 3.49718C57.031 3.58241 57.3278 3.71451 57.5864 3.89349C57.8477 4.07247 58.0537 4.30258 58.2043 4.58383C58.3548 4.86224 58.4301 5.19605 58.4301 5.58525V10H56.7085V9.09235H56.6574C56.5523 9.2969 56.4116 9.4773 56.2355 9.63355C56.0594 9.78695 55.8477 9.90769 55.6006 9.99576C55.3534 10.081 55.0679 10.1236 54.744 10.1236ZM55.2639 8.87076C55.531 8.87076 55.7668 8.8182 55.9713 8.71309C56.1759 8.60514 56.3364 8.46025 56.4528 8.27843C56.5693 8.09661 56.6276 7.89065 56.6276 7.66053V6.96593C56.5707 7.00286 56.4926 7.03695 56.3932 7.0682C56.2966 7.09661 56.1872 7.1236 56.0651 7.14917C55.9429 7.1719 55.8207 7.1932 55.6986 7.21309C55.5764 7.23014 55.4656 7.24576 55.3662 7.25997C55.1531 7.29122 54.967 7.34093 54.808 7.40911C54.6489 7.4773 54.5253 7.56963 54.4372 7.6861C54.3491 7.79974 54.3051 7.94178 54.3051 8.11224C54.3051 8.3594 54.3946 8.54832 54.5736 8.679C54.7554 8.80684 54.9855 8.87076 55.2639 8.87076Z" fill="#FAFAFA"/>
<path d="M62.72 3.45457V4.8182H58.7783V3.45457H62.72ZM59.6732 1.88639H61.4885V7.98866C61.4885 8.15627 61.5141 8.28695 61.5652 8.3807C61.6163 8.47161 61.6874 8.53553 61.7783 8.57247C61.872 8.6094 61.98 8.62786 62.1021 8.62786C62.1874 8.62786 62.2726 8.62076 62.3578 8.60656C62.443 8.58951 62.5084 8.57673 62.5538 8.5682L62.8393 9.91906C62.7484 9.94747 62.6206 9.98014 62.4558 10.0171C62.291 10.0568 62.0908 10.081 61.855 10.0895C61.4175 10.1066 61.0339 10.0483 60.7044 9.9148C60.3777 9.78127 60.1234 9.57389 59.9416 9.29264C59.7598 9.01139 59.6703 8.65627 59.6732 8.2273V1.88639Z" fill="#FAFAFA"/>
<path d="M63.3026 10V3.45457H65.1179V10H63.3026ZM64.2145 2.61082C63.9446 2.61082 63.7131 2.52133 63.5199 2.34235C63.3295 2.16053 63.2344 1.9432 63.2344 1.69036C63.2344 1.44036 63.3295 1.22587 63.5199 1.0469C63.7131 0.865079 63.9446 0.77417 64.2145 0.77417C64.4844 0.77417 64.7145 0.865079 64.9048 1.0469C65.098 1.22587 65.1946 1.44036 65.1946 1.69036C65.1946 1.9432 65.098 2.16053 64.9048 2.34235C64.7145 2.52133 64.4844 2.61082 64.2145 2.61082Z" fill="#FAFAFA"/>
<path d="M68.9295 10.1279C68.2675 10.1279 67.6951 9.98724 67.2121 9.70599C66.732 9.4219 66.3613 9.02701 66.0999 8.52133C65.8386 8.01281 65.7079 7.42332 65.7079 6.75286C65.7079 6.07673 65.8386 5.48582 66.0999 4.98014C66.3613 4.47161 66.732 4.07673 67.2121 3.79548C67.6951 3.51139 68.2675 3.36934 68.9295 3.36934C69.5914 3.36934 70.1624 3.51139 70.6425 3.79548C71.1255 4.07673 71.4977 4.47161 71.759 4.98014C72.0204 5.48582 72.1511 6.07673 72.1511 6.75286C72.1511 7.42332 72.0204 8.01281 71.759 8.52133C71.4977 9.02701 71.1255 9.4219 70.6425 9.70599C70.1624 9.98724 69.5914 10.1279 68.9295 10.1279ZM68.938 8.72161C69.2391 8.72161 69.4906 8.63639 69.6923 8.46593C69.894 8.29264 70.046 8.05684 70.1482 7.75855C70.2533 7.46025 70.3059 7.12076 70.3059 6.74008C70.3059 6.3594 70.2533 6.01991 70.1482 5.72161C70.046 5.42332 69.894 5.18752 69.6923 5.01423C69.4906 4.84093 69.2391 4.75428 68.938 4.75428C68.634 4.75428 68.3783 4.84093 68.171 5.01423C67.9664 5.18752 67.8116 5.42332 67.7065 5.72161C67.6042 6.01991 67.5531 6.3594 67.5531 6.74008C67.5531 7.12076 67.6042 7.46025 67.7065 7.75855C67.8116 8.05684 67.9664 8.29264 68.171 8.46593C68.3783 8.63639 68.634 8.72161 68.938 8.72161Z" fill="#FAFAFA"/>
<path d="M74.5468 6.21593V10H72.7315V3.45457H74.4616V4.6094H74.5383C74.6832 4.22872 74.9261 3.92758 75.267 3.70599C75.6079 3.48156 76.0212 3.36934 76.507 3.36934C76.9616 3.36934 77.3579 3.46877 77.696 3.66764C78.034 3.8665 78.2968 4.15059 78.4843 4.51991C78.6718 4.88639 78.7656 5.32389 78.7656 5.83241V10H76.9502V6.15627C76.9531 5.7557 76.8508 5.4432 76.6434 5.21877C76.436 4.9915 76.1505 4.87786 75.7869 4.87786C75.5425 4.87786 75.3266 4.93042 75.1391 5.03553C74.9545 5.14065 74.8096 5.29406 74.7045 5.49576C74.6022 5.69462 74.5496 5.93468 74.5468 6.21593Z" fill="#FAFAFA"/>
</svg>
