<svg width="74" height="11" viewBox="0 0 74 11" fill="none" xmlns="http://www.w3.org/2000/svg">
<path d="M0.758523 10V1.27273H4.2017C4.8608 1.27273 5.4233 1.39062 5.8892 1.62642C6.35795 1.85937 6.71449 2.19034 6.95881 2.61932C7.20597 3.04545 7.32955 3.54687 7.32955 4.12358C7.32955 4.70312 7.20455 5.2017 6.95455 5.61932C6.70455 6.03409 6.34233 6.35227 5.8679 6.57386C5.39631 6.79545 4.82528 6.90625 4.15483 6.90625H1.84943V5.4233H3.85653C4.20881 5.4233 4.50142 5.375 4.73438 5.27841C4.96733 5.18182 5.14063 5.03693 5.25426 4.84375C5.37074 4.65057 5.42898 4.41051 5.42898 4.12358C5.42898 3.83381 5.37074 3.58949 5.25426 3.39062C5.14063 3.19176 4.96591 3.04119 4.73011 2.93892C4.49716 2.83381 4.20313 2.78125 3.84801 2.78125H2.60369V10H0.758523ZM5.47159 6.02841L7.64062 10H5.60369L3.48153 6.02841H5.47159ZM10.8513 10.1278C10.1894 10.1278 9.61697 9.98722 9.13402 9.70597C8.65391 9.42187 8.28317 9.02699 8.0218 8.52131C7.76044 8.01278 7.62976 7.4233 7.62976 6.75284C7.62976 6.0767 7.76044 5.4858 8.0218 4.98011C8.28317 4.47159 8.65391 4.0767 9.13402 3.79545C9.61697 3.51136 10.1894 3.36932 10.8513 3.36932C11.5133 3.36932 12.0843 3.51136 12.5644 3.79545C13.0474 4.0767 13.4195 4.47159 13.6809 4.98011C13.9423 5.4858 14.0729 6.0767 14.0729 6.75284C14.0729 7.4233 13.9423 8.01278 13.6809 8.52131C13.4195 9.02699 13.0474 9.42187 12.5644 9.70597C12.0843 9.98722 11.5133 10.1278 10.8513 10.1278ZM10.8599 8.72159C11.161 8.72159 11.4124 8.63636 11.6141 8.46591C11.8158 8.29261 11.9678 8.05682 12.0701 7.75852C12.1752 7.46023 12.2278 7.12074 12.2278 6.74006C12.2278 6.35938 12.1752 6.01989 12.0701 5.72159C11.9678 5.4233 11.8158 5.1875 11.6141 5.0142C11.4124 4.84091 11.161 4.75426 10.8599 4.75426C10.5559 4.75426 10.3002 4.84091 10.0928 5.0142C9.88828 5.1875 9.73345 5.4233 9.62834 5.72159C9.52607 6.01989 9.47493 6.35938 9.47493 6.74006C9.47493 7.12074 9.52607 7.46023 9.62834 7.75852C9.73345 8.05682 9.88828 8.29261 10.0928 8.46591C10.3002 8.63636 10.5559 8.72159 10.8599 8.72159ZM17.0653 10.1065C16.5681 10.1065 16.1178 9.97869 15.7144 9.72301C15.3138 9.46449 14.9957 9.08523 14.7599 8.58523C14.5269 8.08239 14.4104 7.46591 14.4104 6.7358C14.4104 5.9858 14.5312 5.36222 14.7727 4.86506C15.0141 4.36506 15.3352 3.99148 15.7357 3.74432C16.1391 3.49432 16.5809 3.36932 17.061 3.36932C17.4275 3.36932 17.7329 3.43182 17.9772 3.55682C18.2244 3.67898 18.4232 3.83239 18.5738 4.01705C18.7272 4.19886 18.8437 4.37784 18.9232 4.55398H18.9786V1.27273H20.7897V10H18.9999V8.9517H18.9232C18.838 9.13352 18.7173 9.31392 18.561 9.4929C18.4076 9.66903 18.2073 9.81534 17.9602 9.93182C17.7158 10.0483 17.4175 10.1065 17.0653 10.1065ZM17.6406 8.66193C17.9332 8.66193 18.1803 8.58239 18.382 8.4233C18.5866 8.26136 18.7428 8.03551 18.8508 7.74574C18.9616 7.45597 19.017 7.11648 19.017 6.72727C19.017 6.33807 18.963 6 18.855 5.71307C18.7471 5.42614 18.5908 5.20455 18.3863 5.0483C18.1817 4.89205 17.9332 4.81392 17.6406 4.81392C17.3423 4.81392 17.0908 4.89489 16.8863 5.05682C16.6817 5.21875 16.5269 5.44318 16.4218 5.73011C16.3167 6.01705 16.2641 6.34943 16.2641 6.72727C16.2641 7.10795 16.3167 7.4446 16.4218 7.73722C16.5298 8.02699 16.6846 8.25426 16.8863 8.41903C17.0908 8.58097 17.3423 8.66193 17.6406 8.66193ZM21.6822 10V3.45455H23.4976V10H21.6822ZM22.5942 2.6108C22.3243 2.6108 22.0928 2.52131 21.8996 2.34233C21.7092 2.16051 21.6141 1.94318 21.6141 1.69034C21.6141 1.44034 21.7092 1.22585 21.8996 1.04688C22.0928 0.865057 22.3243 0.774147 22.5942 0.774147C22.8641 0.774147 23.0942 0.865057 23.2845 1.04688C23.4777 1.22585 23.5743 1.44034 23.5743 1.69034C23.5743 1.94318 23.4777 2.16051 23.2845 2.34233C23.0942 2.52131 22.8641 2.6108 22.5942 2.6108ZM26.1671 6.21591V10H24.3518V3.45455H26.0819V4.60938H26.1586C26.3035 4.22869 26.5464 3.92756 26.8873 3.70597C27.2282 3.48153 27.6415 3.36932 28.1273 3.36932C28.5819 3.36932 28.9782 3.46875 29.3163 3.66761C29.6543 3.86648 29.9171 4.15057 30.1046 4.51989C30.2921 4.88636 30.3859 5.32386 30.3859 5.83239V10H28.5705V6.15625C28.5734 5.75568 28.4711 5.44318 28.2637 5.21875C28.0563 4.99148 27.7708 4.87784 27.4072 4.87784C27.1629 4.87784 26.9469 4.9304 26.7594 5.03551C26.5748 5.14062 26.4299 5.29403 26.3248 5.49574C26.2225 5.6946 26.17 5.93466 26.1671 6.21591ZM33.032 6.21591V10H31.2166V3.45455H32.9467V4.60938H33.0234C33.1683 4.22869 33.4112 3.92756 33.7521 3.70597C34.093 3.48153 34.5064 3.36932 34.9922 3.36932C35.4467 3.36932 35.843 3.46875 36.1811 3.66761C36.5192 3.86648 36.782 4.15057 36.9695 4.51989C37.157 4.88636 37.2507 5.32386 37.2507 5.83239V10H35.4354V6.15625C35.4382 5.75568 35.3359 5.44318 35.1286 5.21875C34.9212 4.99148 34.6357 4.87784 34.272 4.87784C34.0277 4.87784 33.8118 4.9304 33.6243 5.03551C33.4396 5.14062 33.2947 5.29403 33.1896 5.49574C33.0874 5.6946 33.0348 5.93466 33.032 6.21591ZM39.9479 10.1236C39.5303 10.1236 39.1582 10.0511 38.8315 9.90625C38.5048 9.75852 38.2462 9.54119 38.0559 9.25426C37.8684 8.96449 37.7746 8.60369 37.7746 8.17188C37.7746 7.80824 37.8414 7.50284 37.9749 7.25568C38.1085 7.00852 38.2903 6.80966 38.5204 6.65909C38.7505 6.50852 39.0119 6.39489 39.3045 6.31818C39.5999 6.24148 39.9096 6.1875 40.2335 6.15625C40.6141 6.11648 40.921 6.07955 41.1539 6.04545C41.3869 6.00852 41.5559 5.95455 41.661 5.88352C41.7661 5.8125 41.8187 5.70739 41.8187 5.56818V5.54261C41.8187 5.27273 41.7335 5.06392 41.563 4.91619C41.3954 4.76847 41.1567 4.6946 40.8471 4.6946C40.5204 4.6946 40.2604 4.76705 40.0673 4.91193C39.8741 5.05398 39.7462 5.23295 39.6837 5.44886L38.0048 5.3125C38.09 4.91477 38.2576 4.57102 38.5076 4.28125C38.7576 3.98864 39.08 3.7642 39.4749 3.60795C39.8727 3.44886 40.3329 3.36932 40.8556 3.36932C41.2192 3.36932 41.5673 3.41193 41.8996 3.49716C42.2349 3.58239 42.5317 3.71449 42.7903 3.89347C43.0516 4.07244 43.2576 4.30256 43.4082 4.58381C43.5587 4.86222 43.634 5.19602 43.634 5.58523V10H41.9124V9.09233H41.8613C41.7562 9.29688 41.6156 9.47727 41.4394 9.63352C41.2633 9.78693 41.0516 9.90767 40.8045 9.99574C40.5573 10.081 40.2718 10.1236 39.9479 10.1236ZM40.4678 8.87074C40.7349 8.87074 40.9707 8.81818 41.1752 8.71307C41.3798 8.60511 41.5403 8.46023 41.6567 8.27841C41.7732 8.09659 41.8315 7.89062 41.8315 7.66051V6.96591C41.7746 7.00284 41.6965 7.03693 41.5971 7.06818C41.5005 7.09659 41.3911 7.12358 41.269 7.14915C41.1468 7.17187 41.0246 7.19318 40.9025 7.21307C40.7803 7.23011 40.6695 7.24574 40.5701 7.25994C40.357 7.29119 40.171 7.34091 40.0119 7.40909C39.8528 7.47727 39.7292 7.5696 39.6411 7.68608C39.5531 7.79972 39.509 7.94176 39.509 8.11222C39.509 8.35938 39.5985 8.5483 39.7775 8.67898C39.9593 8.80682 40.1894 8.87074 40.4678 8.87074ZM40.2718 2.6108L41.1752 0.671875H42.8542L41.5545 2.6108H40.2718ZM52.0658 5.32102L50.4038 5.4233C50.3754 5.28125 50.3143 5.15341 50.2206 5.03977C50.1268 4.9233 50.0033 4.83097 49.8499 4.76278C49.6993 4.69176 49.5189 4.65625 49.3087 4.65625C49.0274 4.65625 48.7902 4.71591 48.597 4.83523C48.4038 4.9517 48.3072 5.10795 48.3072 5.30398C48.3072 5.46023 48.3697 5.59233 48.4947 5.70028C48.6197 5.80824 48.8342 5.89489 49.1382 5.96023L50.3229 6.19886C50.9592 6.32955 51.4337 6.53977 51.7462 6.82955C52.0587 7.11932 52.2149 7.5 52.2149 7.97159C52.2149 8.40057 52.0885 8.77699 51.8357 9.10085C51.5857 9.42472 51.2419 9.67756 50.8044 9.85938C50.3697 10.0384 49.8683 10.1278 49.3001 10.1278C48.4337 10.1278 47.7433 9.94744 47.2291 9.58665C46.7178 9.22301 46.418 8.72869 46.33 8.10369L48.1155 8.00994C48.1695 8.27415 48.3001 8.47585 48.5075 8.61506C48.7149 8.75142 48.9805 8.8196 49.3044 8.8196C49.6226 8.8196 49.8783 8.75852 50.0714 8.63636C50.2675 8.51136 50.3669 8.35085 50.3697 8.15483C50.3669 7.99006 50.2973 7.85511 50.1609 7.75C50.0246 7.64205 49.8143 7.55966 49.5303 7.50284L48.3967 7.27699C47.7575 7.14915 47.2817 6.92756 46.9692 6.61222C46.6595 6.29687 46.5047 5.89489 46.5047 5.40625C46.5047 4.9858 46.6183 4.62358 46.8456 4.3196C47.0757 4.01562 47.3982 3.78125 47.8129 3.61648C48.2305 3.4517 48.7192 3.36932 49.2788 3.36932C50.1055 3.36932 50.7561 3.54403 51.2305 3.89347C51.7078 4.2429 51.9862 4.71875 52.0658 5.32102ZM48.4607 0.735795L49.3172 1.77557L50.1737 0.735795H51.7206V0.795454L49.9905 2.67045H48.6396L46.9138 0.795454V0.735795H48.4607ZM54.4029 8.11648L54.4072 5.93892H54.6714L56.768 3.45455H58.8518L56.035 6.74432H55.6046L54.4029 8.11648ZM52.758 10V1.27273H54.5734V10H52.758ZM56.8489 10L54.9228 7.14915L56.133 5.86648L58.9754 10H56.8489ZM61.8303 10.1278C61.1683 10.1278 60.5959 9.98722 60.1129 9.70597C59.6328 9.42187 59.2621 9.02699 59.0007 8.52131C58.7393 8.01278 58.6087 7.4233 58.6087 6.75284C58.6087 6.0767 58.7393 5.4858 59.0007 4.98011C59.2621 4.47159 59.6328 4.0767 60.1129 3.79545C60.5959 3.51136 61.1683 3.36932 61.8303 3.36932C62.4922 3.36932 63.0632 3.51136 63.5433 3.79545C64.0263 4.0767 64.3984 4.47159 64.6598 4.98011C64.9212 5.4858 65.0518 6.0767 65.0518 6.75284C65.0518 7.4233 64.9212 8.01278 64.6598 8.52131C64.3984 9.02699 64.0263 9.42187 63.5433 9.70597C63.0632 9.98722 62.4922 10.1278 61.8303 10.1278ZM61.8388 8.72159C62.1399 8.72159 62.3913 8.63636 62.593 8.46591C62.7947 8.29261 62.9467 8.05682 63.049 7.75852C63.1541 7.46023 63.2067 7.12074 63.2067 6.74006C63.2067 6.35938 63.1541 6.01989 63.049 5.72159C62.9467 5.4233 62.7947 5.1875 62.593 5.0142C62.3913 4.84091 62.1399 4.75426 61.8388 4.75426C61.5348 4.75426 61.2791 4.84091 61.0717 5.0142C60.8672 5.1875 60.7124 5.4233 60.6072 5.72159C60.505 6.01989 60.4538 6.35938 60.4538 6.74006C60.4538 7.12074 60.505 7.46023 60.6072 7.75852C60.7124 8.05682 60.8672 8.29261 61.0717 8.46591C61.2791 8.63636 61.5348 8.72159 61.8388 8.72159ZM67.4476 1.27273V10H65.6322V1.27273H67.4476ZM70.1683 10.1236C69.7506 10.1236 69.3785 10.0511 69.0518 9.90625C68.7251 9.75852 68.4666 9.54119 68.2762 9.25426C68.0887 8.96449 67.995 8.60369 67.995 8.17188C67.995 7.80824 68.0617 7.50284 68.1952 7.25568C68.3288 7.00852 68.5106 6.80966 68.7407 6.65909C68.9708 6.50852 69.2322 6.39489 69.5248 6.31818C69.8202 6.24148 70.1299 6.1875 70.4538 6.15625C70.8344 6.11648 71.1413 6.07955 71.3742 6.04545C71.6072 6.00852 71.7762 5.95455 71.8813 5.88352C71.9864 5.8125 72.039 5.70739 72.039 5.56818V5.54261C72.039 5.27273 71.9538 5.06392 71.7833 4.91619C71.6157 4.76847 71.3771 4.6946 71.0674 4.6946C70.7407 4.6946 70.4808 4.76705 70.2876 4.91193C70.0944 5.05398 69.9666 5.23295 69.9041 5.44886L68.2251 5.3125C68.3103 4.91477 68.4779 4.57102 68.7279 4.28125C68.9779 3.98864 69.3004 3.7642 69.6952 3.60795C70.093 3.44886 70.5532 3.36932 71.0759 3.36932C71.4396 3.36932 71.7876 3.41193 72.12 3.49716C72.4552 3.58239 72.7521 3.71449 73.0106 3.89347C73.2719 4.07244 73.4779 4.30256 73.6285 4.58381C73.7791 4.86222 73.8543 5.19602 73.8543 5.58523V10H72.1327V9.09233H72.0816C71.9765 9.29688 71.8359 9.47727 71.6597 9.63352C71.4836 9.78693 71.2719 9.90767 71.0248 9.99574C70.7776 10.081 70.4921 10.1236 70.1683 10.1236ZM70.6881 8.87074C70.9552 8.87074 71.191 8.81818 71.3955 8.71307C71.6001 8.60511 71.7606 8.46023 71.8771 8.27841C71.9935 8.09659 72.0518 7.89062 72.0518 7.66051V6.96591C71.995 7.00284 71.9168 7.03693 71.8174 7.06818C71.7208 7.09659 71.6114 7.12358 71.4893 7.14915C71.3671 7.17187 71.245 7.19318 71.1228 7.21307C71.0006 7.23011 70.8898 7.24574 70.7904 7.25994C70.5773 7.29119 70.3913 7.34091 70.2322 7.40909C70.0731 7.47727 69.9495 7.5696 69.8614 7.68608C69.7734 7.79972 69.7293 7.94176 69.7293 8.11222C69.7293 8.35938 69.8188 8.5483 69.9978 8.67898C70.1796 8.80682 70.4097 8.87074 70.6881 8.87074Z" fill="#121212"/>
</svg>
